<svg xmlns="http://www.w3.org/2000/svg" xmlns:xlink="http://www.w3.org/1999/xlink" xml:space="preserve" version="1.1" style="shape-rendering:geometricPrecision;text-rendering:geometricPrecision;image-rendering:optimizeQuality;" viewBox="0 0 100 100" x="0px" y="0px" fill-rule="evenodd" clip-rule="evenodd"><g><g><polygon class="fil0" points="93,17 88,13 88,51 50,67 12,51 12,13 7,17 7,57 40,71 15,81 15,90 50,75 85,90 85,81 60,71 93,57 " fill="#646464"/><path class="fil0" d="M50 62c7,-11 20,-8 32,-16l0 -35c0,-1 -2,-2 -3,-1 -13,10 -28,0 -30,19 -2,-19 -17,-8 -30,-19 -1,-1 -3,0 -3,1l0 35c12,7 26,5 32,16z" fill="#646464"/></g></g></svg>
